{
	"asset":{
		"generator":"Khronos glTF Blender I/O v3.6.27",
		"version":"2.0"
	},
	"extensionsUsed":[
		"KHR_materials_variants"
	],
	"extensionsRequired":[
		"KHR_materials_variants"
	],
	"extensions":{
		"KHR_materials_variants":{
			"variants":[
				{
					"name":"VariantName"
				},
				{
					"name":"awe"
				},
				{
					"name":"awfrtyt6u"
				}
			]
		}
	},
	"scene":0,
	"scenes":[
		{
			"extras":{
				"gltf2_KHR_materials_variants_variants":[
					{
						"variant_idx":0,
						"name":"VariantName"
					},
					{
						"variant_idx":1,
						"name":"awe"
					},
					{
						"variant_idx":2,
						"name":"awfrtyt6u"
					}
				],
				"zen_display":{
					"stacked":0,
					"finished":0,
					"stretch":0
				},
				"lp":{
					"mask_assets":[
						{
							"name":"Spots",
							"thumbnail":"Spots.jpg",
							"asset_type":0,
							"blend_file":"mask_basics.blend"
						},
						{
							"name":"Scratches",
							"thumbnail":"Scratches.jpg",
							"asset_type":0,
							"blend_file":"mask_basics.blend"
						},
						{
							"name":"Object Random",
							"thumbnail":"Object Random.jpg",
							"asset_type":0,
							"blend_file":"mask_basics.blend"
						},
						{
							"name":"Image Texture",
							"thumbnail":"Image Texture.jpg",
							"asset_type":0,
							"blend_file":"mask_basics.blend"
						},
						{
							"name":"Image Lite",
							"thumbnail":"Image Lite.png",
							"asset_type":0,
							"blend_file":"mask_basics.blend"
						},
						{
							"name":"ID Mask",
							"thumbnail":"ID Mask.jpg",
							"asset_type":0,
							"blend_file":"mask_basics.blend"
						},
						{
							"name":"Heavy Damage",
							"thumbnail":"Heavy Damage.jpg",
							"asset_type":0,
							"blend_file":"mask_basics.blend"
						},
						{
							"name":"Gradient Position",
							"thumbnail":"Gradient Position.jpg",
							"asset_type":0,
							"blend_file":"mask_basics.blend"
						},
						{
							"name":"Fingerprints",
							"thumbnail":"Fingerprints.jpg",
							"asset_type":0,
							"blend_file":"mask_basics.blend"
						},
						{
							"name":"Dust",
							"thumbnail":"Dust.jpg",
							"asset_type":0,
							"blend_file":"mask_basics.blend"
						},
						{
							"name":"Droplets Big",
							"thumbnail":"Droplets Big.jpg",
							"asset_type":0,
							"blend_file":"mask_basics.blend"
						},
						{
							"name":"Droplets",
							"thumbnail":"Droplets.jpg",
							"asset_type":0,
							"blend_file":"mask_basics.blend"
						},
						{
							"name":"Damage",
							"thumbnail":"Damage.jpg",
							"asset_type":0,
							"blend_file":"mask_basics.blend"
						},
						{
							"name":"Cracks Detailed",
							"thumbnail":"Cracks Detailed.jpg",
							"asset_type":0,
							"blend_file":"mask_basics.blend"
						},
						{
							"name":"Cracks",
							"thumbnail":"Cracks.jpg",
							"asset_type":0,
							"blend_file":"mask_basics.blend"
						},
						{
							"name":"Checker",
							"thumbnail":"Checker.jpg",
							"asset_type":0,
							"blend_file":"mask_basics.blend"
						},
						{
							"name":"Cells",
							"thumbnail":"Cells.jpg",
							"asset_type":0,
							"blend_file":"mask_basics.blend"
						}
					],
					"filter_assets":[
						{
							"name":"RGB Curves",
							"thumbnail":"RGB Curves.jpg",
							"asset_type":1,
							"blend_file":"filter_basics.blend"
						},
						{
							"name":"Mix Color",
							"thumbnail":"Mix Color.png",
							"asset_type":1,
							"blend_file":"filter_basics.blend"
						},
						{
							"name":"Map Range",
							"thumbnail":"Map Range.jpg",
							"asset_type":1,
							"blend_file":"filter_basics.blend"
						},
						{
							"name":"Invert",
							"thumbnail":"Invert.jpg",
							"asset_type":1,
							"blend_file":"filter_basics.blend"
						},
						{
							"name":"HSV",
							"thumbnail":"HSV.jpg",
							"asset_type":1,
							"blend_file":"filter_basics.blend"
						},
						{
							"name":"Gamma",
							"thumbnail":"Gamma.png",
							"asset_type":1,
							"blend_file":"filter_basics.blend"
						},
						{
							"name":"Color Ramp",
							"thumbnail":"Color Ramp.jpg",
							"asset_type":1,
							"blend_file":"filter_basics.blend"
						},
						{
							"name":"Clamp",
							"thumbnail":"Clamp.png",
							"asset_type":1,
							"blend_file":"filter_basics.blend"
						},
						{
							"name":"Bright Contrast",
							"thumbnail":"Bright Contrast.jpg",
							"asset_type":1,
							"blend_file":"filter_basics.blend"
						}
					]
				},
				"gltf2_active_variant":2,
				"hh":"hh"
			},
			"name":"Scene",
			"nodes":[
				0
			]
		}
	],
	"nodes":[
		{
			"extras":{
				"gltf2_animation_rest":[
					1.0,
					0.0,
					0.0,
					0.0,
					0.0,
					1.0,
					0.0,
					0.0,
					0.0,
					0.0,
					1.0,
					0.0,
					0.0,
					0.0,
					0.0,
					1.0
				],
				"MasterMaterial":"MM_Mat_v6",
				"character components":"1.0"
			},
			"mesh":0,
			"name":"Suzanne"
		}
	],
	"meshes":[
		{
			"extras":{
				"gltf2_variant_default_materials":[
					{
						"material_slot_index":0,
						"default_material":{
							"name":"Material.002",
							"type":"Material"
						}
					}
				],
				"gltf2_variant_mesh_data":[
					{
						"material_slot_index":0,
						"material":{
							"name":"Material.001",
							"type":"Material"
						},
						"variants":[
							{
								"variant":{
									"variant_idx":0
								}
							},
							{
								"variant":{
									"variant_idx":1
								}
							},
							{
								"variant":{
									"variant_idx":2
								}
							}
						]
					}
				]
			},
			"name":"Mesh.001",
			"primitives":[
				{
					"attributes":{
						"POSITION":0,
						"NORMAL":1,
						"TEXCOORD_0":2
					},
					"extensions":{
						"KHR_materials_variants":{
							"mappings":[
								{
									"variants":[
										0,
										1,
										2
									]
								}
							]
						}
					},
					"indices":3
				}
			]
		}
	],
	"accessors":[
		{
			"bufferView":0,
			"componentType":5126,
			"count":10334,
			"max":[
				1.328185796737671,
				0.9392362236976624,
				0.8224414587020874
			],
			"min":[
				-1.328185796737671,
				-0.971822202205658,
				-0.7782661318778992
			],
			"type":"VEC3"
		},
		{
			"bufferView":1,
			"componentType":5126,
			"count":10334,
			"type":"VEC3"
		},
		{
			"bufferView":2,
			"componentType":5126,
			"count":10334,
			"type":"VEC2"
		},
		{
			"bufferView":3,
			"componentType":5123,
			"count":47232,
			"type":"SCALAR"
		}
	],
	"bufferViews":[
		{
			"buffer":0,
			"byteLength":124008,
			"byteOffset":0,
			"target":34962
		},
		{
			"buffer":0,
			"byteLength":124008,
			"byteOffset":124008,
			"target":34962
		},
		{
			"buffer":0,
			"byteLength":82672,
			"byteOffset":248016,
			"target":34962
		},
		{
			"buffer":0,
			"byteLength":94464,
			"byteOffset":330688,
			"target":34963
		}
	],
	"buffers":[
		{
			"byteLength":425152,
			"uri":"data:application/octet-stream;base64,"
		}
	]
}
